{
  "accessors": [
    {
      "bufferView": 2,
      "componentType": 5126,
      "count": 65532,
      "max": [
        2.1913561820983887,
        1.7693877220153809,
        2.7368791103363037
      ],
      "min": [
        -2.487450361251831,
        -2.912479877471924,
        -1.9419260025024414
      ],
      "type": "VEC3"
    },
    {
      "bufferView": 2,
      "byteOffset": 786384,
      "componentType": 5126,
      "count": 65532,
      "max": [
        0.9999973177909851,
        1.0,
        0.9999968409538269
      ],
      "min": [
        -0.9999973773956299,
        -1.0,
        -0.9999969005584717
      ],
      "type": "VEC3"
    },
    {
      "bufferView": 1,
      "componentType": 5126,
      "count": 65532,
      "max": [
        0.9939746856689453,
        0.936119019985199
      ],
      "min": [
        0.002015290781855583,
        0.010915875434875488
      ],
      "type": "VEC2"
    },
    {
      "bufferView": 0,
      "componentType": 5125,
      "count": 364875,
      "type": "SCALAR"
    },
    {
      "bufferView": 2,
      "byteOffset": 1572768,
      "componentType": 5126,
      "count": 52205,
      "max": [
        1.2035192251205444,
        1.1970642805099487,
        1.961883306503296
      ],
      "min": [
        -1.2773650884628296,
        -2.2526233196258545,
        -1.1625539064407349
      ],
      "type": "VEC3"
    },
    {
      "bufferView": 2,
      "byteOffset": 2199228,
      "componentType": 5126,
      "count": 52205,
      "max": [
        0.9999972581863403,
        1.0,
        0.9999961853027344
      ],
      "min": [
        -0.9999972581863403,
        -1.0,
        -0.9999951720237732
      ],
      "type": "VEC3"
    },
    {
      "bufferView": 1,
      "byteOffset": 524256,
      "componentType": 5126,
      "count": 52205,
      "max": [
        0.9979066252708435,
        0.9945367574691772
      ],
      "min": [
        0.0020494982600212097,
        0.02963542938232422
      ],
      "type": "VEC2"
    },
    {
      "bufferView": 0,
      "byteOffset": 1459500,
      "componentType": 5125,
      "count": 272871,
      "type": "SCALAR"
    }
  ],
  "asset": {
    "extras": {
      "author": "sxlmrt (https://sketchfab.com/sxlmrt)",
      "license": "CC-BY-4.0 (http://creativecommons.org/licenses/by/4.0/)",
      "source": "https://sketchfab.com/3d-models/ghost-d364a9e81c81407aa045815ac5da63ec",
      "title": "Ghost"
    },
    "generator": "Sketchfab-14.87.0",
    "version": "2.0"
  },
  "bufferViews": [
    {
      "buffer": 0,
      "byteLength": 2550984,
      "name": "floatBufferViews",
      "target": 34963
    },
    {
      "buffer": 0,
      "byteLength": 941896,
      "byteOffset": 2550984,
      "byteStride": 8,
      "name": "floatBufferViews",
      "target": 34962
    },
    {
      "buffer": 0,
      "byteLength": 2825688,
      "byteOffset": 3492880,
      "byteStride": 12,
      "name": "floatBufferViews",
      "target": 34962
    }
  ],
  "buffers": [
    {
      "byteLength": 6318568,
      "uri": "scene.bin"
    }
  ],
  "extensionsUsed": [
    "KHR_materials_unlit"
  ],
  "images": [
    {
      "uri": "textures/ghost_baseColor.png"
    }
  ],
  "materials": [
    {
      "extensions": {
        "KHR_materials_unlit": {}
      },
      "name": "ghost",
      "pbrMetallicRoughness": {
        "baseColorTexture": {
          "index": 0
        },
        "metallicFactor": 0.0
      }
    }
  ],
  "meshes": [
    {
      "name": "Object_0",
      "primitives": [
        {
          "attributes": {
            "NORMAL": 1,
            "POSITION": 0,
            "TEXCOORD_0": 2
          },
          "indices": 3,
          "material": 0,
          "mode": 4
        }
      ]
    },
    {
      "name": "Object_1",
      "primitives": [
        {
          "attributes": {
            "NORMAL": 5,
            "POSITION": 4,
            "TEXCOORD_0": 6
          },
          "indices": 7,
          "material": 0,
          "mode": 4
        }
      ]
    }
  ],
  "nodes": [
    {
      "children": [
        1
      ],
      "matrix": [
        1.0,
        0.0,
        0.0,
        0.0,
        0.0,
        2.220446049250313e-16,
        -1.0,
        0.0,
        0.0,
        1.0,
        2.220446049250313e-16,
        0.0,
        0.0,
        0.0,
        0.0,
        1.0
      ],
      "name": "Sketchfab_model"
    },
    {
      "children": [
        2
      ],
      "name": "root"
    },
    {
      "children": [
        3
      ],
      "matrix": [
        1.0,
        0.0,
        0.0,
        0.0,
        0.0,
        2.220446049250313e-16,
        1.0,
        0.0,
        0.0,
        -1.0,
        2.220446049250313e-16,
        0.0,
        0.0,
        0.0,
        0.0,
        1.0
      ],
      "name": "GLTF_SceneRootNode"
    },
    {
      "children": [
        4,
        5
      ],
      "matrix": [
        0.5538198168591788,
        0.0,
        -0.20628141887153614,
        0.0,
        0.0,
        0.590989351272583,
        0.0,
        0.0,
        0.20628141887153614,
        0.0,
        0.5538198168591788,
        0.0,
        0.0,
        2.9147894382476807,
        -0.25066956877708435,
        1.0
      ],
      "name": "ghost_0"
    },
    {
      "mesh": 0,
      "name": "Object_4"
    },
    {
      "mesh": 1,
      "name": "Object_5"
    }
  ],
  "samplers": [
    {
      "magFilter": 9729,
      "minFilter": 9987,
      "wrapS": 10497,
      "wrapT": 10497
    }
  ],
  "scene": 0,
  "scenes": [
    {
      "name": "Sketchfab_Scene",
      "nodes": [
        0
      ]
    }
  ],
  "textures": [
    {
      "sampler": 0,
      "source": 0
    }
  ]
}
