<svg width="55" height="55" viewBox="0 0 55 55" fill="none" xmlns="http://www.w3.org/2000/svg">
<path d="M43.2 11H21.6C18.9824 11.0012 16.4561 11.9923 14.499 13.7857H2.7C1.98392 13.7857 1.29716 14.0792 0.790812 14.6016C0.284463 15.1241 0 15.8326 0 16.5714C0 17.3102 0.284463 18.0188 0.790812 18.5412C1.29716 19.0636 1.98392 19.3571 2.7 19.3571H11.2023C10.7995 21.1832 10.6639 23.0611 10.8 24.9286H5.4C4.68392 24.9286 3.99716 25.2221 3.49081 25.7445C2.98446 26.2669 2.7 26.9755 2.7 27.7143C2.7 28.4531 2.98446 29.1617 3.49081 29.6841C3.99716 30.2065 4.68392 30.5 5.4 30.5H10.8V36.0714H8.1C7.38392 36.0714 6.69716 36.3649 6.19081 36.8873C5.68446 37.4098 5.4 38.1183 5.4 38.8571C5.4 39.596 5.68446 40.3045 6.19081 40.8269C6.69716 41.3494 7.38392 41.6429 8.1 41.6429H11.1807C11.7735 44.0307 13.1187 46.1474 15.0048 47.6603C16.891 49.1731 19.211 49.9962 21.6 50H43.2C44.6184 50.0004 46.0229 49.7124 47.3334 49.1525C48.6439 48.5927 49.8346 47.7719 50.8375 46.7372C51.8405 45.7024 52.636 44.4738 53.1786 43.1218C53.7212 41.7697 54.0004 40.3205 54 38.8571V22.1429C53.9964 19.1887 52.8574 16.3566 50.8328 14.2677C48.8082 12.1788 46.0632 11.0037 43.2 11ZM21.6 16.5714H43.2C44.2885 16.5717 45.3513 16.9126 46.2479 17.5493C47.1446 18.1859 47.8329 19.0883 48.222 20.1371L31.725 29.4136L16.362 20.7779C16.6587 19.5763 17.3345 18.5108 18.2828 17.7492C19.2312 16.9876 20.3982 16.5732 21.6 16.5714ZM48.6 38.8571C48.5957 40.3334 48.0254 41.748 47.0137 42.7919C46.0019 43.8358 44.6309 44.4242 43.2 44.4286H21.6C20.1691 44.4242 18.7981 43.8358 17.7863 42.7919C16.7746 41.748 16.2043 40.3334 16.2 38.8571V27.0457L30.429 35.0407C30.8276 35.2609 31.2728 35.3761 31.725 35.3761C32.1772 35.3761 32.6224 35.2609 33.021 35.0407L48.6 26.2657V38.8571Z" fill="black"/>
</svg>
