<svg width="32" height="32" viewBox="0 0 32 32" fill="none" xmlns="http://www.w3.org/2000/svg">
<path d="M29.3335 1.33328H20.0002C19.2368 1.33015 18.4966 1.59556 17.9092 2.08305C17.3218 2.57055 16.9245 3.24909 16.7868 3.99995L15.5602 10.7333C15.4754 11.2024 15.4947 11.6844 15.6169 12.1452C15.739 12.606 15.9609 13.0344 16.2668 13.3999C16.5745 13.7657 16.9581 14.0601 17.3909 14.2627C17.8238 14.4653 18.2956 14.5713 18.7735 14.5733H22.6668L22.3335 15.4533C22.0874 16.1058 22.0019 16.8079 22.0843 17.5004C22.1666 18.1929 22.4144 18.8554 22.8066 19.432C23.1989 20.0086 23.7241 20.4823 24.3379 20.8132C24.9518 21.1442 25.6362 21.3225 26.3335 21.3333C26.5922 21.3353 26.846 21.262 27.0638 21.1224C27.2816 20.9827 27.4541 20.7826 27.5602 20.5466L30.5468 13.7999C30.6148 13.653 30.6555 13.4948 30.6668 13.3333V2.66661C30.6668 2.31299 30.5264 1.97385 30.2763 1.7238C30.0263 1.47376 29.6871 1.33328 29.3335 1.33328ZM28.0002 12.9733L25.5602 18.4799C25.322 18.3504 25.1168 18.1679 24.9602 17.9466C24.8033 17.7245 24.704 17.4668 24.6715 17.1969C24.6389 16.9269 24.6739 16.653 24.7735 16.3999L25.2802 15.0666C25.4135 14.7208 25.4589 14.3473 25.4123 13.9797C25.3658 13.612 25.2287 13.2616 25.0135 12.9599C24.8015 12.6594 24.5196 12.415 24.1921 12.2477C23.8645 12.0805 23.5012 11.9954 23.1335 11.9999H18.7468C18.6583 12.0002 18.5707 11.9813 18.4901 11.9444C18.4096 11.9076 18.3379 11.8538 18.2802 11.7866C18.1767 11.6444 18.1335 11.4671 18.1602 11.2933L19.3868 4.62661C19.3811 4.54398 19.3929 4.46106 19.4215 4.38332C19.4501 4.30559 19.4949 4.23479 19.5528 4.17559C19.6108 4.11639 19.6806 4.07013 19.7577 4.03986C19.8348 4.00958 19.9174 3.99598 20.0002 3.99995H28.0002V12.9733ZM13.2535 17.3999H9.40016L9.7335 16.5199C9.97603 15.8636 10.0565 15.1585 9.96819 14.4644C9.87983 13.7703 9.62523 13.1078 9.226 12.5332C8.82678 11.9586 8.29474 11.4888 7.6751 11.1638C7.05545 10.8389 6.36652 10.6683 5.66683 10.6666C5.40808 10.6646 5.15433 10.7379 4.93652 10.8775C4.71871 11.0172 4.54624 11.2173 4.44016 11.4533L1.4535 18.1999C1.37709 18.3675 1.33623 18.5491 1.3335 18.7333V29.3999C1.3335 29.7536 1.47397 30.0927 1.72402 30.3428C1.97407 30.5928 2.31321 30.7333 2.66683 30.7333H12.0002C12.7635 30.7364 13.5037 30.471 14.0911 29.9835C14.6785 29.496 15.0758 28.8175 15.2135 28.0666L16.4402 21.3999C16.5249 20.9308 16.5056 20.4488 16.3835 19.988C16.2614 19.5272 16.0395 19.0988 15.7335 18.7333C15.4444 18.3415 15.072 18.0188 14.6432 17.7882C14.2143 17.5577 13.7397 17.4251 13.2535 17.3999ZM12.6135 27.5066C12.5906 27.6502 12.5152 27.7802 12.4018 27.8714C12.2885 27.9626 12.1454 28.0084 12.0002 27.9999H4.00016V19.0266L6.44016 13.5199C6.6783 13.6495 6.88356 13.832 7.04016 14.0533C7.19707 14.2754 7.29629 14.533 7.32887 14.803C7.36146 15.073 7.32639 15.3469 7.22683 15.5999L6.72016 16.9333C6.58687 17.2791 6.54146 17.6526 6.588 18.0202C6.63454 18.3879 6.77158 18.7383 6.98683 19.0399C7.19583 19.3454 7.47644 19.595 7.80416 19.767C8.13188 19.939 8.49672 20.0281 8.86683 20.0266H13.2535C13.3421 20.0264 13.4297 20.0453 13.5102 20.0821C13.5908 20.119 13.6624 20.1728 13.7202 20.2399C13.8237 20.3821 13.8668 20.5594 13.8402 20.7333L12.6135 27.5066Z" fill="white"/>
</svg>
