<svg width="32" height="32" viewBox="0 0 32 32" fill="none" xmlns="http://www.w3.org/2000/svg">
<path d="M28.2967 9.5938V26.5157C28.2967 27.2938 28.2874 28.075 28.2967 28.8532V28.8844L29.8592 27.3219H3.27174C2.91237 27.3219 2.55299 27.3188 2.19362 27.3219H2.14674L3.70924 28.8844V11.9625C3.70924 11.1844 3.71862 10.4032 3.70924 9.62505V9.5938L2.14674 11.1563H28.7342C29.0936 11.1563 29.453 11.1594 29.8124 11.1563H29.8592C30.2592 11.1563 30.6811 10.9813 30.9655 10.7C31.2374 10.4282 31.4405 9.98442 31.4217 9.5938C31.403 9.19067 31.2717 8.77192 30.9655 8.48755C30.6592 8.2063 30.2842 8.0313 29.8592 8.0313H3.27174C2.91237 8.0313 2.55299 8.02817 2.19362 8.0313H2.14674C1.30299 8.0313 0.584245 8.74692 0.584245 9.5938V26.5157C0.584245 27.2938 0.57487 28.075 0.584245 28.8532V28.8844C0.584245 29.7282 1.29987 30.4469 2.14674 30.4469H28.7342C29.0936 30.4469 29.453 30.45 29.8124 30.4469H29.8592C30.703 30.4469 31.4217 29.7313 31.4217 28.8844V11.9625C31.4217 11.1844 31.4311 10.4032 31.4217 9.62505V9.5938C31.4217 9.1938 31.2467 8.77192 30.9655 8.48755C30.6936 8.21567 30.2499 8.01255 29.8592 8.0313C29.4561 8.05005 29.0374 8.1813 28.753 8.48755C28.4749 8.79692 28.2967 9.17192 28.2967 9.5938Z" fill="white"/>
<path d="M29.8593 8.03443H3.27175C2.91238 8.03443 2.553 8.0313 2.19363 8.03443H2.14675C2.5155 8.92505 2.88425 9.81255 3.253 10.7032L5.31551 8.50943C6.41238 7.3438 7.50925 6.1813 8.603 5.01568C8.853 4.75005 9.10613 4.4813 9.35613 4.21568C8.98738 4.3688 8.61863 4.52193 8.24988 4.67193H21.8561C22.4811 4.67193 23.1061 4.6813 23.7311 4.67193H23.7593C23.3905 4.5188 23.0218 4.36568 22.653 4.21568L24.7155 6.40943C25.8124 7.57505 26.9093 8.73755 28.003 9.90318C28.253 10.1688 28.5061 10.4376 28.7561 10.7032C29.0249 10.9907 29.4718 11.1594 29.8624 11.1594C30.2468 11.1594 30.703 10.9907 30.9686 10.7032C31.2405 10.4063 31.4436 10.0157 31.4249 9.59693C31.4061 9.17505 31.2593 8.80318 30.9686 8.49068C30.3468 7.8313 29.728 7.17193 29.1061 6.51255C28.0468 5.38755 26.9905 4.26255 25.9311 3.14068C25.6155 2.80318 25.2968 2.4688 24.9811 2.1313C24.6593 1.78755 24.2593 1.5563 23.7561 1.54693H8.72488C8.44363 1.54693 8.103 1.51568 7.83425 1.60318C7.29675 1.77818 6.99988 2.15943 6.63425 2.54693C5.64988 3.59068 4.66863 4.63443 3.68425 5.6813C2.84675 6.57193 2.00925 7.45943 1.17175 8.35005C1.128 8.39693 1.08113 8.44693 1.03738 8.4938C0.603005 8.9563 0.465505 9.61255 0.715505 10.2001C0.95613 10.7657 1.5155 11.1594 2.14363 11.1594H28.7311C29.0905 11.1594 29.4499 11.1626 29.8093 11.1594H29.8561C30.2561 11.1594 30.678 10.9844 30.9624 10.7032C31.2343 10.4313 31.4374 9.98755 31.4186 9.59693C31.3999 9.1938 31.2686 8.77505 30.9624 8.49068C30.6593 8.21255 30.2843 8.03443 29.8593 8.03443Z" fill="white"/>
<path d="M17.8873 9.5938V18.1626C18.6717 17.7126 19.4561 17.2626 20.2373 16.8126C19.2061 16.2719 18.1748 15.7313 17.1404 15.1907C17.0092 15.1219 16.8779 15.0501 16.7436 14.9813C16.4998 14.8594 16.2342 14.7532 15.9529 14.7657C15.6654 14.7782 15.4217 14.8469 15.1623 14.9782C15.1498 14.9844 15.1373 14.9907 15.1248 15.0001C15.0561 15.0376 14.9842 15.0719 14.9154 15.1094C14.3154 15.4251 13.7154 15.7376 13.1154 16.0532C12.6342 16.3063 12.1529 16.5594 11.6686 16.8094C12.4529 17.2594 13.2373 17.7094 14.0186 18.1594V9.59068L12.4561 11.1532H19.4467C19.8467 11.1532 20.2686 10.9782 20.5529 10.6969C20.8248 10.4251 21.0279 9.9813 21.0092 9.59068C20.9904 9.18755 20.8592 8.7688 20.5529 8.48443C20.2467 8.20318 19.8717 8.02818 19.4467 8.02818H12.4561C11.6123 8.02818 10.8936 8.7438 10.8936 9.59068V18.1594C10.8936 18.7094 11.1936 19.2313 11.6686 19.5094C12.1686 19.8032 12.7436 19.7719 13.2467 19.5094C14.2654 18.9751 15.2873 18.4407 16.3061 17.9063C16.4529 17.8313 16.5967 17.7532 16.7436 17.6782H15.1654C16.1842 18.2126 17.2061 18.7469 18.2248 19.2813C18.3717 19.3563 18.5154 19.4344 18.6623 19.5094C19.1623 19.7719 19.7404 19.8032 20.2404 19.5094C20.7154 19.2313 21.0154 18.7126 21.0154 18.1594V9.59068C21.0154 9.19068 20.8404 8.7688 20.5592 8.48443C20.2873 8.21255 19.8436 8.00943 19.4529 8.02818C19.0498 8.04693 18.6311 8.17818 18.3467 8.48443C18.0654 8.79693 17.8873 9.17193 17.8873 9.5938Z" fill="white"/>
</svg>
