<svg width="32" height="32" viewBox="0 0 32 32" fill="none" xmlns="http://www.w3.org/2000/svg">
<g clip-path="url(#clip0_331_15)">
<path d="M23.9999 10.6667H22.6666V8.00004C22.6666 4.32004 19.6799 1.33337 15.9999 1.33337C12.3199 1.33337 9.33325 4.32004 9.33325 8.00004H11.9999C11.9999 5.78671 13.7866 4.00004 15.9999 4.00004C18.2133 4.00004 19.9999 5.78671 19.9999 8.00004V10.6667H7.99992C6.53325 10.6667 5.33325 11.8667 5.33325 13.3334V26.6667C5.33325 28.1334 6.53325 29.3334 7.99992 29.3334H23.9999C25.4666 29.3334 26.6666 28.1334 26.6666 26.6667V13.3334C26.6666 11.8667 25.4666 10.6667 23.9999 10.6667ZM23.9999 26.6667H7.99992V13.3334H23.9999V26.6667ZM15.9999 22.6667C17.4666 22.6667 18.6666 21.4667 18.6666 20C18.6666 18.5334 17.4666 17.3334 15.9999 17.3334C14.5333 17.3334 13.3333 18.5334 13.3333 20C13.3333 21.4667 14.5333 22.6667 15.9999 22.6667Z" fill="#9CA2A9"/>
</g>
<defs>
<clipPath id="clip0_331_15">
<rect width="32" height="32" fill="white"/>
</clipPath>
</defs>
</svg>
