<svg width="16" height="16" viewBox="0 0 16 16" fill="none" xmlns="http://www.w3.org/2000/svg">
<path d="M8.92497 8.00002L13.6125 2.41252C13.691 2.31966 13.625 2.17859 13.5035 2.17859H12.0785C11.9946 2.17859 11.9143 2.21609 11.8589 2.28037L7.99283 6.8893L4.12675 2.28037C4.07318 2.21609 3.99283 2.17859 3.90711 2.17859H2.48211C2.36068 2.17859 2.29461 2.31966 2.37318 2.41252L7.06068 8.00002L2.37318 13.5875C2.35558 13.6082 2.34429 13.6335 2.34065 13.6605C2.33701 13.6874 2.34117 13.7148 2.35264 13.7394C2.3641 13.764 2.3824 13.7849 2.40535 13.7994C2.4283 13.8139 2.45494 13.8216 2.48211 13.8214H3.90711C3.99104 13.8214 4.0714 13.7839 4.12675 13.7197L7.99283 9.11073L11.8589 13.7197C11.9125 13.7839 11.9928 13.8214 12.0785 13.8214H13.5035C13.625 13.8214 13.691 13.6804 13.6125 13.5875L8.92497 8.00002Z" fill="#656565"/>
</svg>
