<svg width="32" height="32" viewBox="0 0 32 32" fill="none" xmlns="http://www.w3.org/2000/svg">
<path fill-rule="evenodd" clip-rule="evenodd" d="M27.8892 8.46154H24.9169C25.3262 7.75077 25.6277 7.01846 25.6923 6.50154C25.8215 5.05846 25.4554 3.87385 24.5723 3.03385C23.7969 2.21538 22.8277 2 21.6431 2H21.4062C20.2646 2.04308 19.0154 2.53846 18.1108 3.24923C17.2062 3.96 16.5385 4.8 16.0215 5.83385C15.5262 4.8 14.8369 3.93846 13.9323 3.24923C13.0277 2.56 11.7785 2 10.6369 2H10.5723C9.36615 2 8.28923 2.19385 7.47077 3.03385C6.58769 3.87385 6.22154 5.05846 6.35077 6.50154C6.41538 6.99692 6.71692 7.75077 7.12615 8.46154H4.15385C2.96923 8.46154 2 9.43077 2 10.6154V17.0769H4.15385V27.8462C4.15385 29.0308 5.12308 30 6.30769 30H25.6923C26.8769 30 27.8462 29.0308 27.8462 27.8462V17.0769H30V10.6154C30 9.43077 29.0308 8.46154 27.8462 8.46154H27.8892ZM17.5938 6.56615C17.96 5.79077 18.4985 5.12308 19.2092 4.58462C19.8554 4.08923 20.76 3.74462 21.4708 3.70154H21.6646C22.6338 3.70154 23.0862 3.93846 23.3877 4.24C23.6892 4.54154 24.0985 5.08 24.0338 6.28615C23.9262 6.69538 23.4954 7.6 22.9569 8.44H16.7108L17.5938 6.54462V6.56615ZM8.69846 4.24C8.97846 3.96 9.36615 3.70154 10.6585 3.70154C11.3262 3.70154 12.2092 4.06769 12.8769 4.58462C13.5877 5.12308 14.1262 5.76923 14.4923 6.56615L15.3969 8.46154H9.15077C8.61231 7.62154 8.18154 6.71692 8.07385 6.30769C8.00923 5.10154 8.41846 4.56308 8.72 4.26154L8.69846 4.24ZM14.9662 27.8246H6.35077V17.0769H14.9662V27.8462V27.8246ZM14.9662 14.9015H4.19692V10.6154H14.9662V14.9231V14.9015ZM25.7354 27.8246H17.12V17.0769H25.7354V27.8462V27.8246ZM27.8892 14.9015H17.12V10.6154H27.8892V14.9231V14.9015Z" fill="#9CA2A9"/>
</svg>
