<svg width="32" height="32" viewBox="0 0 32 32" fill="none" xmlns="http://www.w3.org/2000/svg">
<g clip-path="url(#clip0_331_21)">
<path d="M17.3333 4C10.7066 4 5.33325 9.37333 5.33325 16H1.33325L6.51992 21.1867L6.61325 21.3733L11.9999 16H7.99992C7.99992 10.84 12.1733 6.66667 17.3333 6.66667C22.4933 6.66667 26.6666 10.84 26.6666 16C26.6666 21.16 22.4933 25.3333 17.3333 25.3333C14.7599 25.3333 12.4266 24.28 10.7466 22.5867L8.85325 24.48C11.0266 26.6533 14.0133 28 17.3333 28C23.9599 28 29.3333 22.6267 29.3333 16C29.3333 9.37333 23.9599 4 17.3333 4ZM15.9999 10.6667V17.3333L21.6666 20.6933L22.6933 18.9867L17.9999 16.2V10.6667H15.9999Z" fill="#9CA2A9"/>
</g>
<defs>
<clipPath id="clip0_331_21">
<rect width="32" height="32" fill="white"/>
</clipPath>
</defs>
</svg>
