<svg width="24" height="24" viewBox="0 0 24 24" fill="none" xmlns="http://www.w3.org/2000/svg">
<path d="M10.1701 19C10.3195 19.0005 10.4671 18.9676 10.602 18.9035C10.737 18.8395 10.8559 18.7461 10.9501 18.63L15.7801 12.63C15.9272 12.4511 16.0076 12.2267 16.0076 11.995C16.0076 11.7634 15.9272 11.539 15.7801 11.36L10.7801 5.36003C10.6103 5.15581 10.3664 5.02739 10.102 5.00301C9.83762 4.97863 9.57432 5.06029 9.37012 5.23003C9.16582 5.39977 9.03742 5.64368 9.01302 5.90811C8.98872 6.17253 9.07032 6.43581 9.24012 6.64003L13.7101 12L9.39012 17.36C9.26782 17.5068 9.19012 17.6856 9.16622 17.8751C9.14232 18.0647 9.17332 18.2571 9.25532 18.4296C9.33742 18.6021 9.46712 18.7475 9.62922 18.8486C9.79132 18.9497 9.97902 19.0023 10.1701 19Z" fill="#9CA2A9"/>
</svg>
