<svg width="32" height="32" viewBox="0 0 32 32" fill="none" xmlns="http://www.w3.org/2000/svg">
<path d="M24.1682 19.0251C21.944 19.0251 20.1345 20.8346 20.1345 23.0588C20.1345 25.2829 21.944 27.0924 24.1682 27.0924C26.3927 27.0924 28.2018 25.2829 28.2018 23.0588C28.2018 20.8346 26.3923 19.0251 24.1682 19.0251ZM24.1682 25.0756C23.0559 25.0756 22.1513 24.171 22.1513 23.0588C22.1513 21.9465 23.0559 21.0419 24.1682 21.0419C25.2804 21.0419 26.185 21.9465 26.185 23.0588C26.185 24.1711 25.2804 25.0756 24.1682 25.0756ZM10.3867 19.0251C8.16246 19.0251 6.35303 20.8346 6.35303 23.0588C6.35303 25.2829 8.16246 27.0924 10.3867 27.0924C12.6108 27.0924 14.4203 25.2829 14.4203 23.0588C14.4203 20.8346 12.6108 19.0251 10.3867 19.0251ZM10.3867 25.0756C9.2744 25.0756 8.36984 24.171 8.36984 23.0588C8.36984 21.9465 9.2744 21.0419 10.3867 21.0419C11.4986 21.0419 12.4035 21.9465 12.4035 23.0588C12.4035 24.1711 11.4989 25.0756 10.3867 25.0756ZM26.8845 7.47963C26.8004 7.31268 26.6717 7.17235 26.5125 7.0743C26.3534 6.97624 26.1702 6.92432 25.9833 6.92432H20.6723V8.94113H25.3614L28.1073 14.4026L29.9097 13.4964L26.8845 7.47963Z" fill="#9CA2A9"/>
<path d="M13.5126 22.0841H21.1429V24.1009H13.5126V22.0841ZM7.36131 22.0841H3.86556C3.30856 22.0841 2.85719 22.5355 2.85719 23.0925C2.85719 23.6495 3.30862 24.1008 3.86556 24.1008H7.36137C7.91837 24.1008 8.36975 23.6494 8.36975 23.0925C8.36975 22.5355 7.91831 22.0841 7.36131 22.0841ZM31.7882 15.9193L29.8048 13.3647C29.7106 13.2433 29.5898 13.145 29.4518 13.0774C29.3138 13.0098 29.1621 12.9747 29.0084 12.9748H21.6807V5.91597C21.6807 5.35897 21.2292 4.90759 20.6723 4.90759H3.86556C3.30856 4.90759 2.85719 5.35903 2.85719 5.91597C2.85719 6.4729 3.30862 6.92434 3.86556 6.92434H19.6639V13.9832C19.6639 14.5402 20.1153 14.9915 20.6723 14.9915H28.5146L29.9832 16.8833V22.084H27.1933C26.6363 22.084 26.1849 22.5354 26.1849 23.0923C26.1849 23.6493 26.6363 24.1007 27.1933 24.1007H30.9916C31.5486 24.1007 31.9999 23.6493 32 23.0923V16.5378C32 16.314 31.9254 16.0962 31.7882 15.9193ZM7.29413 16.9748H2.65544C2.09844 16.9748 1.64706 17.4263 1.64706 17.9832C1.64706 18.5402 2.0985 18.9916 2.65544 18.9916H7.29406C7.85106 18.9916 8.30244 18.5402 8.30244 17.9832C8.3025 17.4263 7.85106 16.9748 7.29413 16.9748ZM9.61344 13.0084H1.00838C0.451438 13.0084 0 13.4598 0 14.0168C0 14.5738 0.451438 15.0252 1.00838 15.0252H9.61344C10.1704 15.0252 10.6218 14.5738 10.6218 14.0168C10.6218 13.4599 10.1704 13.0084 9.61344 13.0084Z" fill="#9CA2A9"/>
<path d="M11.2604 9.04199H2.65535C2.09835 9.04199 1.64697 9.49343 1.64697 10.0504C1.64697 10.6074 2.09841 11.0587 2.65535 11.0587H11.2604C11.8174 11.0587 12.2688 10.6073 12.2688 10.0504C12.2688 9.49343 11.8174 9.04199 11.2604 9.04199Z" fill="#9CA2A9"/>
</svg>
