<svg width="32" height="32" viewBox="0 0 32 32" fill="none" xmlns="http://www.w3.org/2000/svg">
<path d="M25.5 2.5H22C22 1.95 21.55 1.5 21 1.5H11C10.45 1.5 10 1.95 10 2.5H6.5C5.4 2.5 4.5 3.4 4.5 4.5V28.5C4.5 29.6 5.4 30.5 6.5 30.5H25.5C26.6 30.5 27.5 29.6 27.5 28.5V4.5C27.5 3.4 26.6 2.5 25.5 2.5ZM24.5 25.5H22C21.7 25.5 21.5 25.7 21.5 26V28H8.5C7.95 28 7.5 27.55 7.5 27V6C7.5 5.45 7.95 5 8.5 5H10.5H21.5H23.5C24.05 5 24.5 5.45 24.5 6V25.5ZM22.5 27.4V26.5H23.6L22.5 27.4ZM11 2.5H21V3V4H11V3V2.5ZM26.5 28.5C26.5 29.05 26.05 29.5 25.5 29.5H6.5C5.95 29.5 5.5 29.05 5.5 28.5V4.5C5.5 3.95 5.95 3.5 6.5 3.5H10V4H8.5C7.4 4 6.5 4.9 6.5 6V27C6.5 28.1 7.4 29 8.5 29H22C22.1 29 22.25 28.95 22.3 28.9L25.3 26.4C25.45 26.3 25.5 26.15 25.5 26V6C25.5 4.9 24.6 4 23.5 4H22V3.5H25.5C26.05 3.5 26.5 3.95 26.5 4.5V28.5Z" fill="#9CA2A9"/>
<path d="M9 11H12C12.3 11 12.5 10.8 12.5 10.5V8.6L13.3 7.95C13.55 7.8 13.55 7.45 13.4 7.25C13.25 7 12.9 7 12.7 7.15L12.45 7.35C12.4 7.15 12.25 7 12 7H9C8.7 7 8.5 7.2 8.5 7.5V10.5C8.5 10.8 8.7 11 9 11ZM9.5 9V8H11.5V8.1L10.55 8.85L10.35 8.65C10.15 8.45 9.85 8.45 9.65 8.65C9.55 8.75 9.5 8.9 9.5 9C9.5 9.1 9.55 9.25 9.65 9.35L10.15 9.85C10.25 9.95 10.35 10 10.5 10C10.6 10 10.7 9.95 10.8 9.95L11.5 9.4V10H10.5H9.5V9ZM12 17H9C8.7 17 8.5 17.2 8.5 17.5V20.5C8.5 20.8 8.7 21 9 21H12C12.3 21 12.5 20.8 12.5 20.5V17.5C12.5 17.2 12.3 17 12 17ZM11.5 20H9.5V18H11.5V20Z" fill="#9CA2A9"/>
<path d="M22.5 8.5H13.5C13.2 8.5 13 8.7 13 9C13 9.3 13.2 9.5 13.5 9.5H22.5C22.8 9.5 23 9.3 23 9C23 8.7 22.8 8.5 22.5 8.5ZM22.5 13.5H13.5C13.2 13.5 13 13.7 13 14C13 14.3 13.2 14.5 13.5 14.5H22.5C22.8 14.5 23 14.3 23 14C23 13.7 22.8 13.5 22.5 13.5ZM22.5 18.5H13.5C13.2 18.5 13 18.7 13 19C13 19.3 13.2 19.5 13.5 19.5H22.5C22.8 19.5 23 19.3 23 19C23 18.7 22.8 18.5 22.5 18.5Z" fill="#9CA2A9"/>
<path d="M13.3 12.95C13.55 12.8 13.55 12.45 13.4 12.25C13.25 12 12.9 12 12.7 12.15L12.45 12.35C12.4 12.15 12.25 12 12 12H9C8.7 12 8.5 12.2 8.5 12.5V15.5C8.5 15.8 8.7 16 9 16H12C12.3 16 12.5 15.8 12.5 15.5V13.6L13.3 12.95ZM11.5 15H10.5H9.5V14V13H11.5V13.1L10.55 13.85L10.35 13.65C10.15 13.45 9.85 13.45 9.65 13.65C9.55 13.75 9.5 13.9 9.5 14C9.5 14.1 9.55 14.25 9.65 14.35L10.15 14.85C10.25 14.95 10.35 15 10.5 15C10.6 15 10.7 14.95 10.8 14.95L11.5 14.4V15Z" fill="#9CA2A9"/>
</svg>
